<svg width="41" height="49" viewBox="0 0 41 49" fill="none" xmlns="http://www.w3.org/2000/svg">
    <path fill-rule="evenodd" clip-rule="evenodd" d="M25.5238 1.34097C25.5238 1.34097 33.9635 1.16935 37.647 8.28514C37.647 8.28514 40.6048 13.3412 37.647 19.8294C37.647 19.8294 36.2046 22.3247 33.3893 23.9713C33.3893 23.9713 40.0437 26.8729 39.9692 34.953C39.9692 34.953 40.3452 47.8891 26.6868 47.9654C13.0284 48.0423 1 47.9654 1 47.9654V1.34097H25.5238Z" stroke="url(#paint0_linear)" stroke-width="2" />
    <path d="M30.9532 41.2282C33.9327 38.2374 35.603 34.1862 35.5972 29.9646C35.594 29.7041 35.4884 29.4552 35.303 29.2721C35.1176 29.0889 34.8676 28.9863 34.607 28.9863C34.3463 28.9863 34.0963 29.0889 33.9109 29.2721C33.7255 29.4552 33.6198 29.7041 33.6166 29.9646C33.6208 33.6642 32.1563 37.2143 29.5449 39.835C28.2773 41.1365 26.7617 42.1709 25.0877 42.8773C23.4138 43.5835 21.6153 43.9474 19.7985 43.9474C17.9816 43.9474 16.1831 43.5835 14.5092 42.8773C12.8352 42.1709 11.3197 41.1365 10.052 39.835C7.44411 37.2117 5.98032 33.663 5.98032 29.9641C5.98032 26.265 7.44411 22.7163 10.052 20.093C11.3123 18.8015 12.8165 17.7731 14.4773 17.0673C16.138 16.3615 17.9224 15.9924 19.7269 15.9814C20.1122 15.9935 20.4775 16.1556 20.745 16.4332C21.0125 16.7108 21.1609 17.0819 21.1586 17.4674C21.1565 17.8529 21.0037 18.2222 20.733 18.4967C20.4624 18.7712 20.0952 18.929 19.7097 18.9366C19.674 18.9367 19.6383 18.9387 19.6029 18.9425C16.8576 19.0309 14.2526 20.1773 12.3329 22.1418C10.3054 24.1827 9.16754 26.9428 9.16754 29.8195C9.16754 32.6964 10.3054 35.4563 12.3329 37.4973C13.3233 38.5119 14.5067 39.3182 15.8134 39.8686C17.1201 40.4191 18.5237 40.7026 19.9415 40.7026C21.3594 40.7026 22.763 40.4191 24.0697 39.8686C25.3763 39.3182 26.5597 38.5119 27.5502 37.4973C29.5808 35.4585 30.7191 32.6971 30.7151 29.8195C30.7193 29.3664 30.6336 28.9166 30.463 28.4967C30.2924 28.0768 30.0403 27.6948 29.7213 27.3728C29.4022 27.0508 29.0225 26.7952 28.6042 26.6208C28.1858 26.4464 27.7371 26.3566 27.2837 26.3566C26.8304 26.3566 26.3817 26.4464 25.9633 26.6208C25.5449 26.7952 25.1653 27.0508 24.8462 27.3728C24.5271 27.6948 24.2751 28.0768 24.1044 28.4967C23.9339 28.9166 23.8482 29.3664 23.8524 29.8195C23.8524 29.8484 23.8543 29.8756 23.8566 29.9034C23.8543 29.9311 23.8524 29.9589 23.8524 29.9872C23.8589 30.7774 23.6304 31.5517 23.196 32.212C22.7617 32.8721 22.141 33.3883 21.4128 33.6953C20.6846 34.0021 19.8816 34.0858 19.1058 33.9356C18.3299 33.7853 17.6162 33.4081 17.0551 32.8516C16.494 32.2951 16.1109 31.5845 15.9544 30.8099C15.7978 30.0353 15.8749 29.2317 16.1758 28.501C16.4767 27.7702 16.9879 27.1454 17.6445 26.7056C18.3011 26.2659 19.0736 26.0311 19.8638 26.0311C19.9949 26.0327 20.1249 26.0082 20.2465 25.9592C20.368 25.9101 20.4786 25.8374 20.5718 25.7453C20.665 25.6532 20.7391 25.5435 20.7895 25.4226C20.8401 25.3016 20.8661 25.1719 20.8661 25.0408C20.8661 24.9098 20.8401 24.78 20.7895 24.6591C20.7391 24.5381 20.665 24.4284 20.5718 24.3363C20.4786 24.2442 20.368 24.1715 20.2465 24.1224C20.1249 24.0734 19.9949 24.0489 19.8638 24.0505C18.6911 24.057 17.5465 24.4108 16.5745 25.067C15.6025 25.7233 14.8467 26.6528 14.4024 27.7382C13.9582 28.8236 13.8453 30.0162 14.0781 31.1657C14.3109 32.3152 14.8789 33.3698 15.7105 34.1969C16.5421 35.0238 17.6 35.586 18.7507 35.8124C19.9014 36.0387 21.0935 35.9192 22.1763 35.4689C23.2592 35.0186 24.1845 34.2577 24.8354 33.2821C25.4863 32.3065 25.8335 31.1599 25.8335 29.9872C25.8335 29.9583 25.8316 29.9311 25.8293 29.9034C25.8316 29.8756 25.8335 29.8479 25.8335 29.8195C25.8296 29.6266 25.8643 29.4349 25.9356 29.2554C26.0067 29.076 26.113 28.9126 26.248 28.7749C26.3831 28.637 26.5444 28.5274 26.7223 28.4527C26.9002 28.378 27.0914 28.3395 27.2843 28.3395C27.4772 28.3395 27.6684 28.378 27.8463 28.4527C28.0242 28.5274 28.1855 28.637 28.3206 28.7749C28.4556 28.9126 28.562 29.076 28.6331 29.2554C28.7043 29.4349 28.739 29.6266 28.7351 29.8195C28.7377 32.1754 27.8051 34.4359 26.1422 36.1046C25.336 36.933 24.3719 37.5912 23.307 38.0408C22.2421 38.4904 21.0978 38.7219 19.9418 38.7219C18.786 38.7219 17.6418 38.4904 16.5768 38.0408C15.5119 37.5912 14.5479 36.933 13.7416 36.1046C12.0809 34.4345 11.1487 32.1748 11.1487 29.8195C11.1487 27.4643 12.0809 25.2047 13.7416 23.5345C14.5485 22.7072 15.5126 22.0495 16.5772 21.6001C17.6419 21.1506 18.7856 20.9184 19.9412 20.9172C20.0301 20.9169 20.1186 20.9047 20.2043 20.8808C21.0474 20.7515 21.8129 20.3154 22.3542 19.6564C22.8956 18.9973 23.1745 18.1615 23.1375 17.3095C23.1005 16.4574 22.75 15.649 22.1536 15.0393C21.5572 14.4296 20.7567 14.0617 19.9057 14.0059C19.8701 14.0021 19.8343 14.0001 19.7985 14C19.7785 14 19.7587 14 19.7388 14C19.729 14 19.7194 14 19.7099 14C19.7003 14 19.6905 14.0012 19.681 14.0014C17.6222 14.0176 15.587 14.4412 13.6928 15.2477C11.7985 16.0542 10.0826 17.2277 8.64398 18.7005C5.66945 21.6945 4 25.7436 4 29.9641C4 34.1845 5.66945 38.2335 8.64398 41.2275C10.0959 42.7153 11.8307 43.8977 13.7464 44.7048C15.6621 45.5121 17.7199 45.928 19.7988 45.928C21.8776 45.928 23.9353 45.5121 25.8512 44.7048C27.7668 43.8977 29.5016 42.7153 30.9535 41.2275L30.9532 41.2282Z" fill="url(#paint1_linear)" />
    <defs>
        <linearGradient id="paint0_linear" x1="20.4851" y1="1.3406" x2="20.4851" y2="47.9996" gradientUnits="userSpaceOnUse">
            <stop stop-color="#D414F3" />
            <stop offset="1" stop-color="#FF45A9" />
        </linearGradient>
        <linearGradient id="paint1_linear" x1="8.5816" y1="41.1707" x2="28.6608" y2="21.5206" gradientUnits="userSpaceOnUse">
            <stop stop-color="#FF45AA" />
            <stop offset="1" stop-color="#D414F3" />
        </linearGradient>
    </defs>
</svg>